<svg width="20" height="20" viewBox="0 0 20 20" fill="none" xmlns="http://www.w3.org/2000/svg">
<path d="M15.343 18.3333H5.49063C4.91873 18.3326 4.37045 18.1025 3.96606 17.6936C3.56167 17.2846 3.33418 16.7302 3.3335 16.1518V3.01466C3.33418 2.43632 3.56167 1.88188 3.96606 1.47293C4.37045 1.06399 4.91873 0.833943 5.49063 0.833252H11.9521C12.1233 0.833289 12.2874 0.902025 12.4084 1.02436L17.3107 5.98182C17.3708 6.04245 17.4184 6.11445 17.4509 6.1937C17.4834 6.27295 17.5001 6.3579 17.5002 6.4437V16.1514C17.4996 16.7298 17.2722 17.2844 16.8677 17.6934C16.4633 18.1025 15.915 18.3326 15.343 18.3333ZM5.49063 2.13922C5.2611 2.13945 5.04104 2.23176 4.87874 2.39589C4.71644 2.56001 4.62516 2.78255 4.62494 3.01466V16.1518C4.62516 16.384 4.71644 16.6065 4.87874 16.7706C5.04104 16.9347 5.2611 17.0271 5.49063 17.0273H15.343C15.5726 17.0271 15.7926 16.9347 15.9549 16.7706C16.1172 16.6065 16.2085 16.384 16.2087 16.1518V6.71404L11.6844 2.13922H5.49063Z" fill="#62687F"/>
<path d="M16.8056 7.49992H13.1553C12.5398 7.49918 11.9496 7.25432 11.5144 6.81905C11.0791 6.38378 10.8342 5.79364 10.8335 5.17808V1.52828C10.8335 1.34394 10.9067 1.16716 11.0371 1.03682C11.1674 0.906477 11.3442 0.833252 11.5285 0.833252C11.7129 0.833252 11.8896 0.906477 12.02 1.03682C12.1503 1.16716 12.2235 1.34394 12.2235 1.52828V5.17808C12.2238 5.42513 12.322 5.66199 12.4967 5.83668C12.6714 6.01138 12.9083 6.10963 13.1553 6.10987H16.8051C16.9895 6.10987 17.1663 6.1831 17.2966 6.31344C17.4269 6.44378 17.5002 6.62056 17.5002 6.80489C17.5002 6.98923 17.4269 7.16601 17.2966 7.29635C17.1663 7.42669 16.9895 7.49992 16.8051 7.49992H16.8056Z" fill="#62687F"/>
<path d="M5.8335 10.2678C5.8335 10.1253 5.94672 10 6.12335 10H7.15445C7.8138 10 8.3335 10.3535 8.3335 11.3112V11.3397C8.3335 12.2974 7.79379 12.6621 7.10425 12.6621H6.61097V13.8932C6.61097 14.0758 6.41623 14.1667 6.2211 14.1667C6.02598 14.1667 5.8335 14.0758 5.8335 13.8932V10.2678ZM6.61286 10.7751V11.9778H7.10727C7.38694 11.9778 7.55715 11.7957 7.55715 11.4081V11.3453C7.55715 10.9577 7.38694 10.7751 7.10727 10.7751H6.61286Z" fill="#62687F"/>
<path d="M10.4143 10C11.117 10 11.667 10.3647 11.667 11.3453V12.8218C11.667 13.8019 11.117 14.1667 10.4143 14.1667H9.51315C9.30468 14.1667 9.16699 14.0414 9.16699 13.8988V10.2678C9.16699 10.1253 9.30468 10 9.51315 10H10.4143ZM9.96122 10.7751V13.3916H10.4143C10.6997 13.3916 10.8728 13.2094 10.8728 12.8218V11.3453C10.8728 10.9577 10.6997 10.7751 10.4143 10.7751H9.96122Z" fill="#62687F"/>
<path d="M12.5004 10.2739C12.5004 10.0913 12.6843 10 12.8682 10H14.7454C14.924 10 15 10.1998 15 10.382C15 10.593 14.908 10.7751 14.7454 10.7751H13.344V11.7388H14.1614C14.3248 11.7388 14.4156 11.9038 14.4156 12.0863C14.4156 12.2401 14.34 12.4227 14.1614 12.4227H13.344V13.8932C13.344 14.0758 13.1331 14.1667 12.9222 14.1667C12.7113 14.1667 12.5 14.0758 12.5 13.8932L12.5004 10.2739Z" fill="#62687F"/>
</svg>
